# xmcd CD database file
#
# Track frame offsets:
#	150
#	24057
#	44119
#	61477
#	92788
#	100543
#	122038
#	152772
#	164020
#	180621
#
# Disc length: 2564 seconds
#
# Revision: 0
# Processed by: cddbd v1.5.1PL0 Copyright (c) Steve Scherf et al.
# Submitted via: CDex 1.51
#
DISCID=7d0a020a
DTITLE=Bill Tapia - Tropical Swing
DYEAR=2004
DGENRE=Jazz
TTITLE0=Mack The Knife
TTITLE1=Stardust
TTITLE2=Mood Indigo
TTITLE3=Hawaiian Medley
TTITLE4=Body and Soul
TTITLE5=Misty
TTITLE6=Paradise Isle
TTITLE7=Hapa Haole Hula Girl
TTITLE8=Stars and Stripes Forever - Sweethearts on Parade
TTITLE9=Tropical Swing
EXTD=YEAR: 2004
EXTT0=
EXTT1=
EXTT2=
EXTT3=
EXTT4=
EXTT5=
EXTT6=
EXTT7=
EXTT8=
EXTT9=
PLAYORDER=
